<?xml version="1.0" standalone="no"?>
<!DOCTYPE svg PUBLIC "-//W3C//DTD SVG 20010904//EN"
 "http://www.w3.org/TR/2001/REC-SVG-20010904/DTD/svg10.dtd">
<svg version="1.0" xmlns="http://www.w3.org/2000/svg"
 width="539.000000pt" height="304.000000pt" viewBox="0 0 539.000000 304.000000"
 preserveAspectRatio="xMidYMid meet">

<g transform="translate(0.000000,304.000000) scale(0.100000,-0.100000)"
fill="#000000" stroke="none">
<path d="M0 1520 l0 -1520 2695 0 2695 0 0 1520 0 1520 -2695 0 -2695 0 0
-1520z m2565 1266 l34 -26 47 30 c90 57 134 32 134 -75 l0 -61 42 -19 c23 -11
51 -33 62 -48 19 -26 19 -30 6 -55 -9 -15 -37 -38 -63 -52 l-47 -25 0 -62 c0
-104 -47 -129 -132 -73 l-46 31 -48 -31 c-56 -35 -86 -38 -115 -9 -17 17 -20
31 -18 81 l3 60 -49 26 c-27 15 -56 39 -64 54 -14 25 -14 29 5 55 11 15 40 38
64 49 l44 22 -3 56 c-4 81 17 110 70 103 22 -3 55 -17 74 -31z m1300 -36 c71
-34 148 -116 174 -185 64 -171 -16 -365 -181 -441 -87 -39 -197 -40 -278 -2
-81 38 -134 89 -172 166 -30 60 -33 76 -33 152 0 73 4 93 28 142 43 88 124
159 217 189 14 5 63 7 110 5 64 -2 97 -8 135 -26z m-2194 -64 c73 -34 136 -98
172 -174 25 -53 30 -77 30 -141 1 -66 -4 -87 -30 -142 -38 -80 -93 -138 -169
-175 -52 -25 -70 -29 -149 -29 -78 0 -97 4 -147 28 -182 89 -253 298 -163 477
43 84 134 157 229 181 57 15 169 3 227 -25z m3006 -621 c223 -101 277 -390
105 -563 -168 -170 -463 -114 -565 106 -31 67 -31 217 -1 283 80 173 290 252
461 174z m-3800 -9 c73 -34 152 -117 178 -187 46 -126 16 -268 -78 -361 -73
-74 -124 -93 -242 -93 -87 0 -107 3 -150 25 -66 34 -127 96 -161 167 -39 81
-40 192 -3 273 83 179 281 255 456 176z m1813 -66 c0 -6 -7 -13 -15 -16 -8 -4
-15 -10 -15 -16 0 -5 4 -7 9 -3 5 3 12 1 16 -4 3 -7 -38 -11 -112 -11 -65 -1
-152 -3 -193 -5 -41 -2 -166 -4 -278 -5 l-203 0 6 -62 c2 -35 7 -138 10 -231
3 -92 8 -185 11 -207 6 -35 10 -40 34 -40 24 0 30 -7 55 -72 15 -40 34 -89 42
-108 l15 -35 41 105 42 105 39 3 c36 3 38 2 33 -20 -3 -13 -31 -87 -64 -165
l-58 -143 -36 0 c-33 0 -37 3 -49 43 -14 41 -45 118 -77 184 -15 33 -38 37
-26 6 6 -15 5 -16 -9 -3 -9 8 -14 18 -12 22 2 4 0 9 -4 12 -5 3 -10 36 -11 73
-1 37 -10 183 -21 323 -13 177 -15 259 -8 268 14 16 838 18 838 2z m53 3 c-7
-2 -21 -2 -30 0 -10 3 -4 5 12 5 17 0 24 -2 18 -5z m60 0 c-7 -2 -19 -2 -25 0
-7 3 -2 5 12 5 14 0 19 -2 13 -5z m-527 -225 l28 -113 18 60 c9 33 23 84 29
113 12 51 14 53 43 50 30 -3 32 -5 56 -100 14 -53 28 -99 31 -103 4 -3 14 25
23 62 39 155 32 143 76 143 22 0 40 -3 40 -6 0 -4 -56 -205 -86 -306 -6 -22
-82 -26 -89 -5 -2 6 -15 48 -28 91 l-23 80 -26 -90 -25 -89 -43 0 -43 0 -43
150 c-24 83 -44 156 -44 163 0 7 14 12 39 12 l39 0 28 -112z m594 82 c0 -30
-1 -30 -55 -30 l-55 0 0 -35 0 -35 55 0 c54 0 55 0 55 -30 0 -30 -1 -30 -55
-30 l-55 0 0 -35 0 -35 55 0 55 0 0 -35 0 -35 -95 0 -95 0 0 165 0 165 95 0
95 0 0 -30z m250 15 c36 -19 47 -63 26 -106 -15 -29 -14 -31 11 -54 37 -31 37
-85 0 -123 -25 -25 -33 -27 -114 -27 l-88 0 -3 163 -2 162 70 0 c43 0 82 -6
100 -15z m-1602 -502 c103 -76 96 -235 -11 -287 -22 -10 -61 -16 -106 -16
l-71 0 0 166 0 167 80 -5 c60 -4 88 -10 108 -25z m342 -8 l0 -35 -60 0 -60 0
0 -30 c0 -30 1 -30 55 -30 l55 0 0 -35 0 -35 -55 0 c-54 0 -55 0 -55 -30 0
-28 1 -29 58 -32 56 -3 57 -3 60 -35 l3 -33 -95 0 c-91 0 -96 1 -101 23 -4 17
-1 294 4 305 0 1 44 2 96 2 l95 0 0 -35z m620 0 l0 -35 -55 0 c-54 0 -55 0
-55 -29 0 -29 2 -30 53 -33 50 -3 52 -4 52 -33 0 -29 -2 -30 -52 -33 -51 -3
-53 -4 -53 -33 0 -29 1 -29 55 -29 l55 0 0 -35 0 -35 -95 0 -95 0 0 165 0 165
95 0 95 0 0 -35z m160 -95 l0 -130 55 0 55 0 0 -35 0 -35 -95 0 -95 0 0 165 0
165 40 0 40 0 0 -130z m437 102 c40 -28 67 -86 66 -143 -2 -136 -141 -212
-259 -140 -69 42 -90 165 -42 238 14 22 41 47 59 57 47 23 135 17 176 -12z
m311 17 c39 -13 62 -48 62 -94 0 -66 -47 -105 -127 -105 l-34 0 7 -60 7 -60
-42 0 -41 0 0 165 0 165 69 0 c37 0 82 -5 99 -11z m322 -24 l0 -35 -55 0 c-54
0 -55 0 -55 -30 0 -30 1 -30 55 -30 l55 0 0 -35 0 -35 -55 0 c-55 0 -55 0 -55
-31 l0 -31 59 4 c46 3 58 1 54 -9 -7 -18 5 -63 17 -63 5 0 7 6 4 13 -2 7 10
33 28 58 32 43 32 47 33 149 l0 105 69 3 c110 5 156 -25 156 -101 0 -30 -7
-46 -30 -69 l-31 -30 51 -58 c27 -32 50 -61 50 -64 0 -3 -16 -6 -35 -6 -23 0
-42 -8 -60 -25 -27 -28 -33 -47 -11 -39 21 8 32 -17 13 -28 -13 -7 -14 -13 -5
-27 15 -24 4 -51 -19 -45 -14 4 -18 -1 -19 -20 -1 -18 3 -26 15 -26 13 0 14
-2 2 -9 -12 -8 -12 -12 -2 -25 8 -9 10 -16 5 -16 -4 0 -3 -5 4 -12 17 -17 15
-38 -3 -38 -14 0 -21 -22 -15 -45 10 -36 6 -66 -12 -84 -10 -12 -16 -26 -13
-31 3 -6 0 -10 -7 -10 -9 0 -10 -2 -1 -8 8 -5 6 -18 -8 -47 -11 -22 -18 -44
-15 -50 2 -6 -3 -27 -12 -46 -8 -18 -14 -40 -13 -47 1 -6 -2 -12 -6 -12 -5 0
-9 -9 -9 -19 0 -11 5 -17 10 -14 5 4 7 -1 3 -11 -4 -10 -7 -23 -8 -29 0 -7 -5
-3 -10 8 -7 16 -8 13 -6 -14 3 -27 0 -35 -17 -39 -20 -6 -20 -6 4 -13 l25 -7
-28 -1 c-16 -1 -26 -5 -22 -11 3 -5 12 -7 20 -3 8 3 15 0 15 -6 0 -6 -12 -11
-27 -11 -20 0 -24 -3 -14 -9 7 -5 10 -14 7 -20 -4 -6 -12 -8 -18 -5 -7 5 -9 1
-5 -9 3 -9 1 -18 -6 -21 -7 -2 -4 -5 6 -5 18 -1 24 -27 7 -33 -6 -2 -13 -16
-16 -32 -7 -42 -11 -46 -49 -46 -29 0 -35 5 -48 39 -20 49 -54 228 -59 305
l-3 60 90 46 c50 26 97 49 105 52 8 3 11 9 7 14 -4 4 -53 -15 -108 -43 -83
-42 -100 -48 -96 -32 3 10 2 17 -3 14 -12 -7 -17 84 -5 97 7 8 6 9 -2 4 -7 -4
-13 -5 -13 -3 0 2 -5 28 -10 58 -9 48 -7 66 13 135 13 43 27 86 31 95 4 10 -1
25 -14 40 l-21 24 5 -32 c4 -22 1 -33 -9 -37 -8 -3 -15 -13 -15 -23 -1 -17 -1
-17 -10 -1 -6 9 -13 55 -16 101 -6 80 -5 86 15 96 27 15 27 31 1 31 -19 0 -20
7 -20 165 l0 165 95 0 95 0 0 -35z m-1773 -157 c-3 -8 -6 -5 -6 6 -1 11 2 17
5 13 3 -3 4 -12 1 -19z m3004 -50 c141 -65 225 -224 198 -371 -32 -176 -157
-287 -334 -295 -113 -5 -180 21 -261 102 -75 75 -104 143 -104 246 0 151 85
274 228 331 70 28 198 23 273 -13z m-2978 -105 c-7 -2 -21 -2 -30 0 -10 3 -4
5 12 5 17 0 24 -2 18 -5z m-1263 -24 c0 -10 5 -19 10 -19 6 0 10 -5 10 -10 0
-6 -27 -9 -65 -8 -58 1 -65 4 -66 22 -2 19 -2 19 -6 -1 -5 -28 -33 -30 -33 -3
0 11 -4 20 -10 20 -5 0 -10 -8 -10 -18 0 -14 -8 -19 -30 -20 -26 -1 -30 3 -30
27 l0 28 115 1 c107 1 115 -1 115 -19z m-659 -22 c-8 -8 -11 -7 -11 4 0 20 13
34 18 19 3 -7 -1 -17 -7 -23z m72 -14 c-7 -3 -9 -11 -6 -19 3 -8 0 -20 -5 -27
-7 -8 -7 -18 -2 -27 13 -20 13 -33 0 -25 -5 3 -12 -5 -16 -19 -3 -14 -12 -31
-20 -37 -13 -10 -13 -8 -4 15 5 15 7 32 4 38 -4 6 -2 8 3 5 14 -9 24 54 11 70
-5 7 -8 18 -5 25 4 8 6 7 6 -4 1 -9 5 -19 10 -22 4 -3 6 6 3 19 -4 21 -1 24
14 18 10 -4 13 -8 7 -10z m1897 -8 l0 -25 423 -1 c294 -1 408 -4 377 -11 -25
-5 -59 -10 -77 -10 -30 1 -31 -1 -23 -24 10 -25 1 -30 -40 -24 -8 1 -12 -1 -8
-5 10 -11 58 -13 58 -3 0 5 5 6 12 2 11 -7 45 -10 127 -13 19 -1 32 -4 29 -7
-13 -12 -733 -21 -781 -9 -33 9 -33 11 -47 -228 -9 -144 -8 -192 1 -203 9 -11
43 -14 155 -14 79 0 144 -4 144 -8 0 -5 -13 -29 -30 -53 -16 -24 -30 -51 -30
-60 0 -9 -9 -36 -20 -60 -22 -49 -25 -84 -9 -95 15 -9 33 13 53 68 20 56 81
138 101 138 20 0 19 -12 -3 -36 -11 -11 -22 -31 -25 -44 -14 -58 -44 -127 -65
-148 -22 -22 -30 -62 -12 -62 6 0 10 -5 10 -10 0 -7 -143 -9 -422 -8 l-423 3
-32 65 c-63 129 -184 432 -206 514 -19 77 -20 90 -8 147 7 34 24 85 37 112 21
41 34 52 82 74 36 16 81 27 122 29 50 3 58 2 37 -5 -34 -11 -56 -38 -57 -66 0
-16 2 -17 9 -6 7 11 13 -3 22 -47 7 -33 16 -59 20 -56 4 2 10 -5 14 -16 4 -11
19 -32 33 -46 27 -25 27 -25 7 -42 -17 -14 -19 -22 -11 -45 9 -25 14 -28 43
-22 27 5 33 3 33 -11 0 -9 -6 -14 -13 -11 -7 3 -19 -3 -25 -13 -9 -15 -6 -23
15 -47 14 -15 22 -22 18 -14 -6 10 -4 12 4 7 7 -5 10 -14 7 -22 -3 -8 -2 -13
2 -13 18 3 20 -3 6 -28 -13 -26 -12 -29 6 -45 20 -16 20 -17 -22 -20 l-43 -3
54 -19 c36 -12 49 -21 40 -26 -10 -7 -10 -11 0 -24 8 -9 21 -16 30 -16 10 0 5
-7 -14 -20 -23 -15 -26 -20 -12 -21 9 -1 23 -2 29 -3 7 0 13 -10 13 -21 2 -34
26 -85 41 -85 18 0 30 30 38 94 4 27 9 52 11 56 2 3 13 93 24 200 35 322 34
310 17 316 -9 3 -16 11 -16 16 0 6 6 8 14 5 15 -6 26 31 26 85 0 55 15 68 75
68 52 0 55 -1 55 -25z m-1946 -21 c3 -8 2 -12 -4 -9 -6 3 -10 10 -10 16 0 14
7 11 14 -7z m1511 6 c3 -5 2 -10 -4 -10 -5 0 -13 5 -16 10 -3 6 -2 10 4 10 5
0 13 -4 16 -10z m-829 -52 c-3 -29 -8 -87 -11 -128 -11 -143 -7 -136 -78 -153
-57 -15 -68 -15 -122 -1 -33 9 -61 17 -63 19 -3 3 -31 270 -32 303 0 9 38 12
156 12 l156 0 -6 -52z m-692 -20 c-4 -37 -15 -68 -26 -68 -10 0 -4 73 8 92 9
15 20 0 18 -24z m2701 2 c-3 -5 -10 -10 -16 -10 -5 0 -9 5 -9 10 0 6 7 10 16
10 8 0 12 -4 9 -10z m-2598 -32 c-3 -8 -6 -5 -6 6 -1 11 2 17 5 13 3 -3 4 -12
1 -19z m3150 0 c13 -16 48 -410 39 -433 -3 -9 -10 -13 -16 -10 -6 4 -8 10 -5
15 11 17 -27 395 -41 411 -8 9 -11 19 -7 22 10 10 19 8 30 -5z m-312 -8 c3 -6
-1 -7 -9 -4 -18 7 -21 14 -7 14 6 0 13 -4 16 -10z m-636 -50 c-6 -5 -18 -6
-26 -3 -19 8 -16 11 13 11 17 0 22 -3 13 -8z m251 6 c0 -3 -4 -8 -10 -11 -5
-3 -10 -1 -10 4 0 6 5 11 10 11 6 0 10 -2 10 -4z m65 -6 c3 -6 -1 -7 -9 -4
-18 7 -21 14 -7 14 6 0 13 -4 16 -10z m-2615 -14 c0 -3 -4 -8 -10 -11 -5 -3
-10 -1 -10 4 0 6 5 11 10 11 6 0 10 -2 10 -4z m2245 -66 c-49 -3 -94 -3 -100
0 -14 7 135 16 165 10 14 -3 -15 -7 -65 -10z m-132 3 c-13 -2 -33 -2 -45 0
-13 2 -3 4 22 4 25 0 35 -2 23 -4z m304 1 c-3 -3 -12 -4 -19 -1 -8 3 -5 6 6 6
11 1 17 -2 13 -5z m-2263 -50 c3 -8 2 -12 -4 -9 -6 3 -10 10 -10 16 0 14 7 11
14 -7z m2016 -24 c8 -5 11 -10 5 -10 -5 0 -17 5 -25 10 -8 5 -10 10 -5 10 6 0
17 -5 25 -10z m85 0 c3 -6 -1 -7 -9 -4 -18 7 -21 14 -7 14 6 0 13 -4 16 -10z
m169 1 c4 -5 -3 -7 -14 -4 -23 6 -26 13 -6 13 8 0 17 -4 20 -9z m176 0 c0 -5
-9 -7 -20 -4 -11 3 -20 7 -20 9 0 2 9 4 20 4 11 0 20 -4 20 -9z m-122 -77 c-6
-5 -219 -7 -353 -3 l-90 3 110 5 c117 6 340 3 333 -5z m112 0 c0 -2 -18 -4
-40 -4 -22 0 -40 3 -40 8 0 4 18 6 40 4 22 -2 40 -6 40 -8z m-293 -66 c-3 -8
-6 -5 -6 6 -1 11 2 17 5 13 3 -3 4 -12 1 -19z m-1960 -33 c-1 -19 -8 -37 -16
-40 -9 -4 -11 0 -7 11 3 9 9 27 12 40 9 34 13 30 11 -11z m1878 25 c3 -5 1
-10 -4 -10 -6 0 -11 5 -11 10 0 6 2 10 4 10 3 0 8 -4 11 -10z m175 0 c0 -5 -5
-10 -11 -10 -5 0 -7 5 -4 10 3 6 8 10 11 10 2 0 4 -4 4 -10z m-282 -7 c-10 -2
-28 -2 -40 0 -13 2 -5 4 17 4 22 1 32 -1 23 -4z m49 1 c-3 -3 -12 -4 -19 -1
-8 3 -5 6 6 6 11 1 17 -2 13 -5z m-2008 -71 c-1 -10 1 -26 6 -36 4 -10 5 -21
1 -24 -3 -4 -6 1 -6 11 0 9 -4 14 -10 11 -11 -7 -12 0 -4 33 7 26 16 30 13 5z
m247 -25 c-4 -18 -11 -34 -16 -36 -5 -2 -7 -9 -4 -16 3 -7 -1 -40 -9 -73 -12
-54 -12 -61 2 -71 14 -10 14 -11 -2 -5 -10 3 -17 2 -16 -3 1 -5 0 -11 -1 -14
-1 -3 -4 -18 -6 -34 -8 -50 -24 -67 -22 -23 1 21 8 43 15 49 11 9 10 13 -4 24
-11 8 -13 13 -5 14 6 0 12 7 12 16 0 8 -4 13 -9 10 -5 -4 -7 3 -4 14 3 11 9
20 12 20 4 0 5 14 3 31 -3 21 2 40 16 59 16 21 18 30 9 39 -9 9 -8 14 3 21 26
17 33 11 26 -22z m-81 -28 c-11 -12 -14 -26 -10 -39 4 -12 2 -21 -4 -21 -6 0
-11 -10 -11 -22 0 -13 -5 -30 -11 -38 -8 -12 -10 -10 -5 10 2 14 10 53 17 87
7 34 16 60 21 57 4 -3 9 1 9 8 1 7 3 5 6 -5 3 -10 -3 -27 -12 -37z m-225 29
c0 -6 7 -9 15 -5 15 5 15 6 -16 -55 -7 -13 -7 -24 -1 -28 17 -11 19 -36 4 -53
-13 -16 -13 -18 1 -24 17 -6 35 7 55 41 9 15 11 16 12 4 0 -9 -3 -19 -7 -22
-3 -4 -8 -19 -9 -34 -6 -56 -27 -143 -35 -143 -5 0 -5 -7 -2 -17 4 -11 3 -14
-5 -9 -8 5 -12 0 -12 -13 0 -12 -4 -21 -10 -21 -12 0 -12 7 0 48 8 28 7 32 -5
22 -8 -6 -15 -24 -17 -38 -3 -24 -8 -27 -44 -30 l-41 -3 32 128 c17 70 34 135
38 143 3 8 11 39 17 68 7 28 16 52 21 52 5 0 9 -5 9 -11z m2794 -13 c-5 -14
13 -13 -275 -20 -231 -5 -237 -5 -242 15 -5 20 -1 20 258 18 198 -1 262 -4
259 -13z m16 -50 c0 -17 9 -28 36 -41 19 -9 38 -24 41 -33 3 -9 12 -24 19 -32
20 -24 44 -100 30 -100 -13 0 -96 77 -96 89 0 5 -19 15 -42 24 -65 24 -98 31
-98 19 0 -6 14 -14 32 -17 36 -8 28 -3 136 -97 61 -53 82 -77 80 -92 -3 -22
-26 -26 -60 -11 -13 5 -18 3 -18 -9 0 -13 -12 -16 -66 -16 -64 0 -67 1 -116
45 -30 27 -60 45 -74 45 -13 0 -24 -3 -24 -6 0 -10 44 -43 58 -44 6 0 12 -4
12 -8 0 -5 10 -14 23 -20 18 -9 6 -11 -60 -11 l-82 -1 -3 28 c-2 21 -9 28 -30
30 -33 4 -30 -2 -33 89 -1 61 -5 77 -29 107 -15 20 -33 36 -39 36 -7 0 -24 8
-37 18 -24 16 -18 17 200 22 124 3 228 7 233 8 4 1 7 -9 7 -22z m-2700 -62
c-4 -19 -5 -34 -2 -34 4 0 -4 -7 -16 -16 -14 -10 -22 -25 -21 -42 2 -24 2 -24
6 -4 6 32 23 17 23 -21 0 -22 -3 -28 -9 -18 -6 9 -11 -4 -17 -40 -7 -49 -8
-51 -15 -24 -3 17 -7 39 -8 50 0 16 1 17 9 5 6 -10 8 1 8 35 -2 62 22 154 38
148 8 -3 9 -15 4 -39z m-223 -6 c-3 -7 -5 -2 -5 12 0 14 2 19 5 13 2 -7 2 -19
0 -25z m3122 -2 c25 -26 31 -39 27 -60 -4 -14 -8 -38 -11 -52 -8 -36 -31 -15
-40 35 -7 42 -37 81 -62 81 -13 0 -13 3 -3 15 20 24 54 17 89 -19z m-2813 -61
c1 -14 -1 -25 -5 -25 -3 0 -6 -12 -7 -28 -2 -54 -15 -122 -24 -122 -6 0 -5 11
0 26 14 35 12 42 -5 20 -11 -14 -15 -16 -15 -5 1 23 26 135 34 147 12 19 21
14 22 -13z m-284 -7 c-7 -7 -12 -8 -12 -2 0 14 12 26 19 19 2 -3 -1 -11 -7
-17z m-11 -59 c-5 -13 -10 -19 -10 -12 -1 15 10 45 15 40 3 -2 0 -15 -5 -28z
m370 -16 c-8 -15 -10 -15 -11 -2 0 17 10 32 18 25 2 -3 -1 -13 -7 -23z m-387
-28 c-4 -8 -8 -15 -10 -15 -2 0 -4 7 -4 15 0 8 4 15 10 15 5 0 7 -7 4 -15z
m2484 -35 c-14 -27 -27 -40 -40 -40 -20 0 -20 1 -3 28 18 28 44 52 56 52 3 0
-2 -18 -13 -40z m-2328 -7 c-11 -17 -11 -17 -6 0 3 10 6 24 7 30 0 9 2 9 5 0
3 -7 0 -20 -6 -30z m187 -10 c-3 -10 -5 -4 -5 12 0 17 2 24 5 18 2 -7 2 -21 0
-30z m-350 5 c-3 -8 -6 -5 -6 6 -1 11 2 17 5 13 3 -3 4 -12 1 -19z"/>
<path d="M2456 2784 c-16 -16 -21 -61 -10 -101 9 -32 70 -21 107 20 15 17 27
34 27 37 0 9 -82 60 -96 60 -7 0 -20 -7 -28 -16z"/>
<path d="M2664 2774 c-21 -15 -41 -28 -43 -30 -2 -2 8 -19 22 -38 20 -25 36
-35 64 -38 22 -3 41 0 45 6 14 20 9 94 -8 110 -21 22 -35 20 -80 -10z"/>
<path d="M2582 2700 c-11 -18 -10 -20 18 -20 28 0 29 2 18 20 -7 11 -15 20
-18 20 -3 0 -11 -9 -18 -20z"/>
<path d="M2478 2643 c-19 -5 -23 -20 -9 -41 6 -10 12 -7 24 12 25 37 24 39
-15 29z"/>
<path d="M2515 2605 l-26 -45 27 -51 28 -50 58 3 c59 3 59 3 85 50 l26 47 -27
45 -27 46 -58 0 -59 0 -27 -45z m119 -11 c24 -24 20 -61 -9 -80 -23 -15 -27
-15 -50 0 -42 28 -24 96 25 96 10 0 26 -7 34 -16z"/>
<path d="M2690 2643 c0 -4 9 -19 19 -32 l19 -24 7 22 c4 12 5 24 3 26 -10 8
-48 15 -48 8z"/>
<path d="M2400 2623 c-96 -36 -87 -106 16 -137 30 -9 51 59 33 109 -13 35 -20
39 -49 28z"/>
<path d="M2752 2593 c-9 -29 -9 -48 0 -76 13 -43 19 -44 73 -14 32 18 40 28
40 51 0 31 -31 61 -76 71 -23 6 -27 2 -37 -32z"/>
<path d="M2467 2506 c-11 -28 -8 -33 18 -38 30 -6 31 2 7 32 -17 21 -19 21
-25 6z"/>
<path d="M2707 2496 c-22 -33 -22 -34 8 -28 26 4 31 17 16 40 -6 10 -12 7 -24
-12z"/>
<path d="M2446 2434 c-13 -33 -6 -91 13 -108 17 -15 22 -16 52 -3 19 8 42 23
52 35 18 20 18 21 -10 50 -34 36 -97 52 -107 26z"/>
<path d="M2696 2441 c-16 -3 -39 -20 -53 -38 l-24 -31 33 -25 c46 -34 63 -38
87 -21 21 15 29 71 15 108 -6 17 -12 17 -58 7z"/>
<path d="M2570 2431 c0 -5 7 -14 15 -21 12 -10 18 -10 30 0 23 19 18 30 -15
30 -16 0 -30 -4 -30 -9z"/>
<path d="M3689 2712 c-9 -4 -71 -43 -138 -87 -122 -81 -147 -109 -122 -139 7
-8 8 -17 3 -20 -5 -3 -9 -35 -9 -70 l0 -65 129 -86 c71 -47 142 -88 157 -91
34 -7 65 8 191 94 131 89 137 95 122 128 -10 20 -10 30 -1 40 9 11 9 21 2 37
-7 16 -8 29 -1 41 5 9 7 24 4 31 -8 22 -257 184 -291 189 -16 3 -37 2 -46 -2z
m66 -139 c7 -17 18 -23 41 -23 35 0 68 -29 58 -53 -3 -9 -17 -23 -30 -31 -76
-50 -61 -51 -158 13 l-88 59 43 32 c54 39 117 40 134 3z"/>
<path d="M3658 2563 c-34 -22 -35 -26 -3 -43 21 -11 28 -10 50 4 54 35 7 73
-47 39z"/>
<path d="M3730 2510 l-25 -20 25 -20 c31 -24 29 -25 64 3 20 16 27 29 23 40
-9 23 -56 21 -87 -3z"/>
<path d="M1573 2506 c-32 -14 -51 -52 -44 -86 5 -25 34 -52 79 -71 70 -30 47
-77 -32 -65 -38 6 -44 4 -49 -14 -7 -26 18 -40 73 -40 55 0 95 23 109 61 15
44 -3 77 -57 104 -59 30 -68 40 -52 61 11 12 24 14 51 10 32 -5 39 -3 44 15 4
11 4 23 1 26 -13 13 -93 12 -123 -1z"/>
<path d="M1418 2405 c-3 -112 -9 -125 -54 -125 -22 0 -39 -24 -28 -41 11 -19
82 -9 111 15 27 24 28 27 31 140 l4 116 -30 0 -30 0 -4 -105z"/>
<path d="M4640 1938 c0 -29 -5 -35 -41 -50 -37 -16 -40 -20 -37 -50 4 -45 42
-67 87 -49 31 13 31 14 31 85 0 67 -10 96 -32 96 -4 0 -8 -15 -8 -32z m-2
-100 c-3 -7 -11 -13 -18 -13 -7 0 -15 6 -17 13 -3 7 4 12 17 12 13 0 20 -5 18
-12z"/>
<path d="M4293 1888 c-19 -9 -23 -19 -23 -55 0 -59 25 -53 44 10 8 24 26 12
26 -18 0 -19 16 -35 36 -35 2 0 4 18 4 39 0 30 -6 44 -22 55 -26 18 -34 19
-65 4z"/>
<path d="M4737 1884 c-23 -13 -28 -21 -25 -47 3 -36 43 -65 73 -53 17 6 16 9
-10 31 -22 17 -27 26 -19 35 8 8 15 8 25 -3 8 -7 20 -12 27 -9 21 7 13 38 -13
50 -31 14 -24 15 -58 -4z"/>
<path d="M3030 1786 c0 -22 5 -36 13 -36 42 1 51 62 10 68 -20 3 -23 -1 -23
-32z"/>
<path d="M3030 1650 c0 -36 3 -40 24 -40 24 0 56 23 56 40 0 17 -32 40 -56 40
-21 0 -24 -4 -24 -40z"/>
<path d="M1410 1225 c0 -92 1 -95 23 -95 40 1 69 32 74 83 5 41 2 49 -25 77
-17 16 -40 30 -51 30 -20 0 -21 -5 -21 -95z"/>
<path d="M2932 1305 c-27 -20 -41 -69 -31 -115 10 -43 32 -60 80 -60 50 0 79
35 79 97 0 76 -69 118 -128 78z"/>
<path d="M3297 1323 c-4 -3 -7 -24 -7 -45 0 -32 3 -38 21 -38 34 0 59 19 59
45 0 32 -52 60 -73 38z"/>
<path d="M3877 1323 c-4 -3 -7 -24 -7 -45 0 -28 4 -38 16 -38 54 0 76 62 28
80 -30 12 -29 12 -37 3z"/>
<path d="M3565 1038 c-3 -13 -6 -32 -8 -43 -1 -11 -6 -27 -11 -35 -7 -12 -6
-13 5 -2 21 19 29 15 45 -23 16 -39 34 -38 34 0 0 13 5 27 10 30 6 3 8 18 5
33 -4 23 -4 24 4 7 5 -11 10 -15 10 -10 1 15 57 46 66 37 5 -4 5 -1 1 6 -6 9
-12 9 -29 0 -20 -10 -21 -10 -8 5 12 15 10 17 -13 17 -38 0 -56 -22 -59 -68
-1 -22 -6 -38 -10 -35 -5 3 -7 16 -4 29 2 13 0 24 -5 24 -6 0 -7 11 -4 25 5
18 2 25 -9 25 -8 0 -17 -10 -20 -22z"/>
<path d="M3831 1014 c0 -11 3 -14 6 -6 3 7 2 16 -1 19 -3 4 -6 -2 -5 -13z"/>
<path d="M3871 1014 c0 -11 3 -14 6 -6 3 7 2 16 -1 19 -3 4 -6 -2 -5 -13z"/>
<path d="M3695 990 c-4 -6 -10 -8 -14 -5 -5 2 -11 -29 -14 -69 -4 -40 -9 -80
-13 -90 -3 -9 -1 -16 5 -16 6 0 11 7 11 15 0 8 14 21 30 30 31 16 37 29 20 40
-5 3 -10 1 -10 -4 0 -6 -6 -11 -14 -11 -21 0 -15 42 9 63 20 18 20 18 -5 12
l-25 -7 23 17 c23 17 29 35 13 35 -6 0 -13 -5 -16 -10z"/>
<path d="M3726 944 c-4 -10 -1 -14 6 -12 15 5 23 28 10 28 -5 0 -13 -7 -16
-16z"/>
<path d="M3760 938 c0 -9 -8 -22 -17 -28 -13 -8 -14 -13 -5 -16 21 -9 13 -32
-18 -51 -18 -10 -30 -26 -30 -39 0 -19 -28 -54 -42 -54 -4 0 -4 10 -2 23 4 20
-24 -49 -40 -100 -6 -19 -4 -22 9 -17 9 4 14 13 11 20 -3 7 4 16 17 20 20 6
21 7 3 14 -16 5 -13 10 23 39 24 20 41 41 41 54 0 11 3 18 6 15 3 -4 20 8 38
26 33 31 70 43 81 25 12 -19 25 -8 25 22 0 28 -2 30 -32 27 -18 -1 -41 -12
-50 -23 -10 -11 -17 -15 -18 -9 0 5 5 15 11 21 8 8 8 16 0 30 -9 16 -10 16
-11 1z"/>
<path d="M3881 891 c-8 -5 -9 -11 -3 -15 5 -3 12 1 16 9 6 17 6 18 -13 6z"/>
<path d="M3707 762 c-50 -52 -47 -59 9 -17 25 19 50 35 55 35 5 0 9 5 9 10 0
22 -38 8 -73 -28z"/>
<path d="M3789 763 c-13 -15 -12 -15 9 -4 23 12 28 21 13 21 -5 0 -15 -7 -22
-17z"/>
<path d="M3660 670 c-14 -11 -20 -20 -14 -20 14 0 50 27 44 33 -3 3 -16 -3
-30 -13z"/>
<path d="M3663 631 c-70 -50 -79 -61 -23 -27 25 15 55 32 68 38 21 11 31 28
15 28 -5 0 -32 -18 -60 -39z"/>
<path d="M3756 624 c-4 -9 -4 -19 -1 -22 3 -3 5 0 5 7 0 7 5 9 10 6 6 -3 10
-2 10 4 0 18 -18 21 -24 5z"/>
<path d="M4687 1085 c-21 -7 -42 -16 -45 -20 -4 -4 -7 -41 -6 -83 1 -91 21
-139 82 -194 68 -61 78 -64 123 -32 49 34 88 78 106 123 19 45 22 163 5 183
-29 36 -191 50 -265 23z m160 -107 c-3 -10 -1 -16 4 -12 10 6 11 -11 3 -43 -4
-13 -10 -20 -15 -17 -5 3 -9 -2 -9 -10 0 -8 5 -18 10 -21 6 -3 10 -12 9 -18 0
-9 -2 -9 -5 0 -3 7 -12 9 -21 6 -12 -5 -14 -3 -8 7 5 8 4 11 -2 7 -6 -4 -10
-18 -10 -32 0 -13 2 -23 6 -21 4 3 5 -12 3 -32 -5 -35 -5 -36 -14 -12 -5 14
-17 34 -27 45 -48 53 -50 151 -3 206 l25 31 29 -33 c17 -20 27 -41 25 -51z"/>
<path d="M4572 625 c0 -16 2 -22 5 -12 2 9 2 23 0 30 -3 6 -5 -1 -5 -18z"/>
<path d="M4602 625 c0 -16 2 -22 5 -12 2 9 2 23 0 30 -3 6 -5 -1 -5 -18z"/>
<path d="M4625 640 c3 -5 8 -10 11 -10 2 0 4 5 4 10 0 6 -5 10 -11 10 -5 0 -7
-4 -4 -10z"/>
<path d="M4696 637 c3 -10 9 -15 12 -12 3 3 0 11 -7 18 -10 9 -11 8 -5 -6z"/>
<path d="M4720 639 c0 -5 5 -7 10 -4 6 3 10 8 10 11 0 2 -4 4 -10 4 -5 0 -10
-5 -10 -11z"/>
<path d="M4867 629 c4 -13 8 -18 11 -10 2 7 -1 18 -6 23 -8 8 -9 4 -5 -13z"/>
<path d="M4660 626 c0 -8 4 -17 9 -20 5 -4 7 3 4 14 -6 23 -13 26 -13 6z"/>
<path d="M4780 634 c0 -15 14 -30 35 -38 17 -6 18 -5 5 6 -8 7 -21 19 -27 27
-7 8 -13 11 -13 5z"/>
<path d="M2665 900 c3 -5 11 -10 16 -10 6 0 7 5 4 10 -3 6 -11 10 -16 10 -6 0
-7 -4 -4 -10z"/>
<path d="M1980 840 c0 -5 -7 -10 -15 -10 -8 0 -15 -3 -16 -7 -4 -39 -7 -64
-13 -100 -3 -24 -2 -43 3 -43 5 0 7 -9 4 -20 -3 -11 0 -27 7 -35 7 -8 9 -15 5
-15 -4 0 -2 -6 4 -14 6 -8 11 -18 10 -22 -5 -29 3 -52 21 -57 11 -3 20 -10 20
-17 0 -6 -5 -8 -11 -4 -9 5 3 -28 16 -44 1 -1 3 17 3 40 1 24 6 66 10 93 5 28
9 98 11 158 l3 107 -31 0 c-17 0 -31 -4 -31 -10z"/>
<path d="M1975 470 c3 -5 8 -10 11 -10 2 0 4 5 4 10 0 6 -5 10 -11 10 -5 0 -7
-4 -4 -10z"/>
<path d="M2240 338 c0 -6 -6 -19 -13 -27 -16 -20 -53 -168 -44 -178 7 -7 67
118 67 140 0 8 9 26 20 40 26 33 25 37 -5 37 -14 0 -25 -5 -25 -12z"/>
<path d="M2127 258 c-13 -28 -30 -138 -21 -138 14 0 34 38 34 65 0 19 5 37 10
40 12 7 13 65 2 65 -5 0 -16 -15 -25 -32z"/>
<path d="M508 835 l4 -55 65 0 c64 0 64 0 61 -27 -3 -24 -8 -28 -40 -31 -29
-2 -39 1 -48 17 -15 30 -30 26 -30 -8 0 -25 5 -30 38 -38 22 -6 52 -6 75 0 35
9 37 12 37 47 0 21 3 45 6 54 5 14 -4 16 -65 16 -69 0 -71 1 -71 25 0 24 2 25
70 25 56 0 70 3 70 15 0 12 -16 15 -87 15 l-88 0 3 -55z"/>
<path d="M410 320 c0 -11 2 -20 4 -20 2 0 6 9 9 20 3 11 1 20 -4 20 -5 0 -9
-9 -9 -20z"/>
<path d="M130 361 c0 -25 6 -27 13 -6 4 8 2 17 -3 20 -6 4 -10 -3 -10 -14z"/>
<path d="M171 204 c0 -11 3 -14 6 -6 3 7 2 16 -1 19 -3 4 -6 -2 -5 -13z"/>
<path d="M141 154 c0 -11 3 -14 6 -6 3 7 2 16 -1 19 -3 4 -6 -2 -5 -13z"/>
<path d="M130 120 c0 -5 5 -10 10 -10 6 0 10 5 10 10 0 6 -4 10 -10 10 -5 0
-10 -4 -10 -10z"/>
<path d="M2780 187 c8 -8 34 -19 58 -26 24 -7 61 -28 82 -48 22 -19 45 -33 51
-31 16 5 -78 82 -125 102 -21 9 -48 16 -59 16 -18 0 -19 -2 -7 -13z"/>
</g>
</svg>
